<?xml version="1.0" encoding="UTF-8" standalone="no"?>
<!-- Created with Inkscape (http://www.inkscape.org/) -->

<svg
   xmlns:dc="http://purl.org/dc/elements/1.1/"
   xmlns:cc="http://creativecommons.org/ns#"
   xmlns:rdf="http://www.w3.org/1999/02/22-rdf-syntax-ns#"
   xmlns:svg="http://www.w3.org/2000/svg"
   xmlns="http://www.w3.org/2000/svg"
   xmlns:sodipodi="http://sodipodi.sourceforge.net/DTD/sodipodi-0.dtd"
   xmlns:inkscape="http://www.inkscape.org/namespaces/inkscape"
   width="4.523819"
   height="4.7138152"
   viewBox="0 0 4.523819 4.7138151"
   version="1.1"
   id="SVGRoot"
   inkscape:version="0.92.4 (5da689c313, 2019-01-14)"
   sodipodi:docname="start.svg">
  <defs
     id="defs1097">
    <linearGradient
       gradientTransform="translate(1365.8049,1331.0439)"
       id="SVGID_1_"
       gradientUnits="userSpaceOnUse"
       x1="67.930168"
       x2="107.2018"
       y1="34.940536"
       y2="125.4899">
      <stop
         offset="0"
         style="stop-color:#617e4a;stop-opacity:1"
         id="stop2" />
      <stop
         offset="0.9952"
         style="stop-color:#00a489;stop-opacity:1"
         id="stop4" />
    </linearGradient>
  </defs>
  <sodipodi:namedview
     id="base"
     pagecolor="#ffffff"
     bordercolor="#666666"
     borderopacity="1.0"
     inkscape:pageopacity="0.0"
     inkscape:pageshadow="2"
     inkscape:zoom="90.509668"
     inkscape:cx="2.61023"
     inkscape:cy="1.8249665"
     inkscape:document-units="px"
     inkscape:current-layer="layer1"
     showgrid="false"
     inkscape:window-width="1920"
     inkscape:window-height="1029"
     inkscape:window-x="0"
     inkscape:window-y="0"
     inkscape:window-maximized="1"
     inkscape:grid-bbox="true" />
  <metadata
     id="metadata1100">
    <rdf:RDF>
      <cc:Work
         rdf:about="">
        <dc:format>image/svg+xml</dc:format>
        <dc:type
           rdf:resource="http://purl.org/dc/dcmitype/StillImage" />
        <dc:title />
      </cc:Work>
    </rdf:RDF>
  </metadata>
  <g
     inkscape:label="Layer 1"
     inkscape:groupmode="layer"
     id="layer1"
     transform="translate(-48.919707,-49.033136)">
    <g
       id="start-here-kde"
       transform="matrix(0.03937008,0,0,0.03937008,-5.1382643,-3.5430262)">
      <path
         inkscape:connector-curvature="0"
         d="m 1487.8449,1396.7839 c -0.02,-0.1 -0.04,-0.2 -0.06,-0.3 -4.7,-16.55 -24.55,-13.99 -39.37,-9.37 -0.93,0.29 -1.93,-0.14 -2.34,-1.02 l -0.03,-0.07 c -0.43,-0.92 -0.1,-2 0.75,-2.52 13.26,-8.11 28.35,-21.38 18.97,-35.85 -0.06,-0.08 -0.13,-0.16 -0.19,-0.25 -1.21,-1.35 -12.27,-12.99 -24.71,-2.46 -0.93,0.78 -2.36,0.52 -2.94,-0.55 -7.84,-14.3 -22.34,-7.4 -23.95,-6.57 -0.09,0.05 -0.18,0.11 -0.26,0.16 -13.95,10.14 -4.62,27.96 4.85,40.28 0.6,0.78 0.5,1.89 -0.21,2.57 l -0.03,0.03 c -0.71,0.67 -1.79,0.71 -2.55,0.11 -12.17,-9.6 -29.71,-19.02 -40,-5.3 -0.06,0.09 -0.11,0.17 -0.17,0.26 -0.85,1.6 -7.96,16 6.21,24.05 1.06,0.6 1.3,2.04 0.5,2.95 -10.72,12.31 0.75,23.54 2.08,24.77 0.08,0.07 0.16,0.13 0.24,0.19 15.87,10.63 30.73,-8.79 38.63,-22.59 0.41,-0.72 0.97,-1.38 2.05,-0.95 1.08,0.43 -1.15,8.35 -2.66,12.03 -0.78,1.83 -1.6,3.71 -2.57,5.55 -0.93,1.86 -2,3.66 -3.11,5.43 -1.15,1.74 -2.34,3.44 -3.63,4.99 -0.64,0.79 -1.28,1.55 -1.97,2.26 -0.65,0.74 -1.35,1.41 -2.04,2.06 -1.37,1.31 -2.78,2.47 -4.18,3.47 -0.67,0.53 -1.39,0.95 -2.07,1.39 -0.66,0.45 -1.34,0.82 -2,1.17 -1.28,0.75 -2.55,1.24 -3.63,1.74 -1.13,0.41 -2.1,0.78 -2.91,1.04 -1.65,0.46 -2.59,0.72 -2.59,0.72 l -0.3,0.08 c -0.34,0.1 -0.68,0.23 -1.01,0.42 -1.43,0.8 -2.5,2.89 -2.26,4.52 0.43,2.99 3.43,4.65 6.08,3.65 0,0 1.13,-0.43 3.11,-1.17 30.96,-13.17 31.14,-48.49 33.96,-48.32 1.23,0.07 1.13,0.88 1.26,1.7 2.43,15.71 9.33,39.17 27.96,34.94 0.1,-0.03 0.2,-0.06 0.3,-0.09 1.69,-0.67 16.42,-7.04 10.83,-22.35 -0.42,-1.14 0.33,-2.39 1.53,-2.58 16.13,-2.43 14.65,-18.42 14.43,-20.22 z"
         style="fill:url(#SVGID_1_)"
         id="path7" />
    </g>
  </g>
</svg>
