<?xml version="1.0" encoding="UTF-8" standalone="no"?>
<!-- Created with Inkscape (http://www.inkscape.org/) -->

<svg
   xmlns:dc="http://purl.org/dc/elements/1.1/"
   xmlns:cc="http://creativecommons.org/ns#"
   xmlns:rdf="http://www.w3.org/1999/02/22-rdf-syntax-ns#"
   xmlns:svg="http://www.w3.org/2000/svg"
   xmlns="http://www.w3.org/2000/svg"
   xmlns:sodipodi="http://sodipodi.sourceforge.net/DTD/sodipodi-0.dtd"
   xmlns:inkscape="http://www.inkscape.org/namespaces/inkscape"
   width="8.4666662mm"
   height="8.4666662mm"
   viewBox="0 0 8.4666662 8.4666662"
   version="1.1"
   id="svg846"
   inkscape:version="0.92.4 (5da689c313, 2019-01-14)"
   sodipodi:docname="window.svg">
  <defs
     id="defs840" />
  <sodipodi:namedview
     id="base"
     pagecolor="#ffffff"
     bordercolor="#666666"
     borderopacity="1.0"
     inkscape:pageopacity="0.0"
     inkscape:pageshadow="2"
     inkscape:zoom="5.6"
     inkscape:cx="44.650679"
     inkscape:cy="17.890513"
     inkscape:document-units="mm"
     inkscape:current-layer="layer1"
     showgrid="false"
     inkscape:window-width="1920"
     inkscape:window-height="1028"
     inkscape:window-x="0"
     inkscape:window-y="0"
     inkscape:window-maximized="1"
     inkscape:lockguides="false">
    <inkscape:grid
       type="xygrid"
       id="grid839" />
  </sodipodi:namedview>
  <metadata
     id="metadata843">
    <rdf:RDF>
      <cc:Work
         rdf:about="">
        <dc:format>image/svg+xml</dc:format>
        <dc:type
           rdf:resource="http://purl.org/dc/dcmitype/StillImage" />
        <dc:title />
      </cc:Work>
    </rdf:RDF>
  </metadata>
  <g
     inkscape:label="Layer 1"
     inkscape:groupmode="layer"
     id="layer1"
     transform="translate(-61.043155,-207.34405)">
    <g
       id="22-22-window-close"
       transform="matrix(0.26458333,0,0,0.26458333,69.509821,209.98988)">
      <rect
         style="opacity:0.00100002"
         width="22"
         height="22"
         x="0"
         y="0"
         id="rect18" />
      <g
         style="fill:#ffffff"
         transform="matrix(1.7493122,0,0,1.7499488,-107.95048,-909.47286)"
         id="g24">
        <g
           style="fill:#ffffff"
           transform="translate(19,-242)"
           id="g22">
          <path
             inkscape:connector-curvature="0"
             style="fill:#87a96b;fill-opacity:1"
             d="m 45.571203,764.57141 h 0.857142 c 0.0089,-1.1e-4 0.01782,-4e-4 0.02679,0 0.21853,0.01 0.437032,0.11021 0.589286,0.26785 l 1.955357,1.95536 1.982143,-1.95536 c 0.227678,-0.19757 0.382861,-0.26185 0.589285,-0.26785 h 0.857143 v 0.85714 c 0,0.24555 -0.02943,0.47199 -0.214285,0.64286 l -1.955357,1.95535 1.928571,1.92858 c 0.161304,0.16128 0.241064,0.38867 0.241071,0.61607 v 0.85714 h -0.857143 c -0.2274,-10e-6 -0.454788,-0.0798 -0.616071,-0.24107 l -1.955357,-1.95536 -1.955357,1.95536 c -0.161288,0.1613 -0.388684,0.24107 -0.616076,0.24107 h -0.857142 v -0.85714 c -3e-6,-0.22739 0.07977,-0.45479 0.241071,-0.61607 l 1.955357,-1.92858 -1.955357,-1.95535 c -0.180636,-0.16683 -0.259851,-0.40222 -0.241071,-0.64286 z"
             id="path20" />
        </g>
      </g>
    </g>
    <g
       id="16-16-window-close"
       transform="matrix(0.26458333,0,0,0.26458333,75.330655,215.81071)">
      <rect
         style="opacity:0.00100002"
         width="16"
         height="16"
         x="0"
         y="-16"
         id="rect27" />
      <g
         style="fill:#ffffff"
         transform="matrix(1.2495087,0,0,1.2499635,-76.964626,-665.48065)"
         id="g33">
        <g
           style="fill:#ffffff"
           transform="translate(19,-242)"
           id="g31">
          <path
             inkscape:connector-curvature="0"
             style="fill:#87a96b;fill-opacity:1"
             d="m 45.799685,764.79997 h 0.8 c 0.0083,-10e-5 0.01663,-3.7e-4 0.025,0 0.203961,0.009 0.407896,0.10286 0.55,0.25 l 1.825,1.825 1.85,-1.825 c 0.2125,-0.1844 0.357337,-0.2444 0.55,-0.25 h 0.8 v 0.8 c 0,0.22918 -0.02747,0.44052 -0.2,0.6 l -1.825,1.825 1.8,1.8 c 0.15055,0.15054 0.224993,0.36276 0.225,0.575 v 0.8 h -0.8 c -0.212241,-10e-6 -0.424469,-0.0745 -0.575,-0.225 l -1.825,-1.825 -1.825,1.825 c -0.150531,0.15055 -0.362768,0.225 -0.575,0.225 h -0.8 v -0.8 c -3e-6,-0.21223 0.07445,-0.42446 0.225,-0.575 l 1.825,-1.8 -1.825,-1.825 c -0.168594,-0.1557 -0.242528,-0.3754 -0.225,-0.6 z"
             id="path29" />
        </g>
      </g>
    </g>
    <g
       id="window-close"
       transform="matrix(0.26458333,0,0,0.26458333,61.043155,207.34405)">
      <rect
         width="32"
         height="32"
         x="0"
         y="0"
         style="opacity:0.00100002"
         id="rect36" />
      <g
         style="opacity:0.2"
         transform="matrix(1.7493122,0,0,1.7499488,-102.95048,-903.47286)"
         id="g46">
        <g
           transform="translate(19,-242)"
           id="g44" />
      </g>
      <g
         transform="matrix(1.7493122,0,0,1.7499488,-102.95048,-904.47286)"
         style="fill:#ffffff"
         id="g52">
        <g
           transform="translate(19,-242)"
           style="fill:#ffffff"
           id="g50">
          <path
             inkscape:connector-curvature="0"
             d="m 45.571203,764.57141 h 0.857142 c 0.0089,-1.1e-4 0.01782,-4e-4 0.02679,0 0.21853,0.01 0.437032,0.11021 0.589286,0.26785 l 1.955357,1.95536 1.982143,-1.95536 c 0.227678,-0.19757 0.382861,-0.26185 0.589285,-0.26785 h 0.857143 v 0.85714 c 0,0.24555 -0.02943,0.47199 -0.214285,0.64286 l -1.955357,1.95535 1.928571,1.92858 c 0.161304,0.16128 0.241064,0.38867 0.241071,0.61607 v 0.85714 h -0.857143 c -0.2274,-10e-6 -0.454788,-0.0798 -0.616071,-0.24107 l -1.955357,-1.95536 -1.955357,1.95536 c -0.161288,0.1613 -0.388684,0.24107 -0.616076,0.24107 h -0.857142 v -0.85714 c -3e-6,-0.22739 0.07977,-0.45479 0.241071,-0.61607 l 1.955357,-1.92858 -1.955357,-1.95535 c -0.180636,-0.16683 -0.259851,-0.40222 -0.241071,-0.64286 z"
             style="fill:#87a96b;fill-opacity:1"
             id="path48" />
        </g>
      </g>
    </g>
    <g
       id="window-pin"
       transform="matrix(0.25622163,0,0,0.26458333,87.093534,206.66913)">
      <g
         style="fill:none;stroke:none"
         inkscape:label=""
         transform="matrix(1.1111111,0,0,1.1111111,10.755556,-20.722222)"
         id="e">
        <circle
           style="opacity:1;fill:none;fill-opacity:1;fill-rule:evenodd;stroke:none;stroke-width:1;stroke-linecap:round;stroke-linejoin:round;stroke-miterlimit:4;stroke-dasharray:none;stroke-dashoffset:0;stroke-opacity:1"
           id="path4145"
           cx="-27.5"
           cy="42.5"
           r="4.5" />
      </g>
      <g
         inkscape:label=""
         transform="matrix(0.7125,0,0,0.7125,-1.3937488,-2.5937493)"
         id="e-5">
        <ellipse
           style="opacity:1;fill:#87a96b;fill-opacity:1;fill-rule:evenodd;stroke:#87a96b;stroke-width:1.30799675;stroke-linecap:round;stroke-linejoin:round;stroke-miterlimit:4;stroke-dasharray:none;stroke-dashoffset:0;stroke-opacity:1"
           id="path4145-9"
           cx="-26.014797"
           cy="40.985523"
           rx="6.0127263"
           ry="5.7619157" />
      </g>
    </g>
    <g
       transform="matrix(0.25622163,0,0,0.26458333,90.090372,206.65773)"
       id="window-unpin">
      <g
         style="fill:none;stroke:none"
         inkscape:label=""
         transform="matrix(1.1111111,0,0,1.1111111,10.755556,-20.722222)"
         id="e-0">
        <circle
           style="opacity:1;fill:none;fill-opacity:1;fill-rule:evenodd;stroke:none;stroke-width:1;stroke-linecap:round;stroke-linejoin:round;stroke-miterlimit:4;stroke-dasharray:none;stroke-dashoffset:0;stroke-opacity:1"
           id="path4145-2"
           cx="-27.5"
           cy="42.5"
           r="4.5" />
      </g>
      <g
         inkscape:label=""
         transform="matrix(0.7125,0,0,0.7125,-1.3937488,-2.5937493)"
         id="e-5-5">
        <ellipse
           style="opacity:1;fill:#87a96b;fill-opacity:1;fill-rule:evenodd;stroke:#87a96b;stroke-width:1.30799103;stroke-linecap:round;stroke-linejoin:round;stroke-miterlimit:4;stroke-dasharray:none;stroke-dashoffset:0;stroke-opacity:1"
           id="path4145-9-6"
           cx="-26.183777"
           cy="41.294979"
           rx="6.0126715"
           ry="5.7619185" />
      </g>
    </g>
  </g>
</svg>
