<?xml version="1.0" encoding="UTF-8" standalone="no"?>
<svg
   xmlns:osb="http://www.openswatchbook.org/uri/2009/osb"
   xmlns:dc="http://purl.org/dc/elements/1.1/"
   xmlns:cc="http://creativecommons.org/ns#"
   xmlns:rdf="http://www.w3.org/1999/02/22-rdf-syntax-ns#"
   xmlns:svg="http://www.w3.org/2000/svg"
   xmlns="http://www.w3.org/2000/svg"
   xmlns:xlink="http://www.w3.org/1999/xlink"
   xmlns:sodipodi="http://sodipodi.sourceforge.net/DTD/sodipodi-0.dtd"
   xmlns:inkscape="http://www.inkscape.org/namespaces/inkscape"
   id="svg"
   width="32"
   height="32"
   version="1.1"
   viewBox="0 0 32 32"
   sodipodi:docname="window.svg"
   inkscape:version="1.0 (4035a4fb49, 2020-05-01)">
  <metadata
     id="metadata60">
    <rdf:RDF>
      <cc:Work
         rdf:about="">
        <dc:format>image/svg+xml</dc:format>
        <dc:type
           rdf:resource="http://purl.org/dc/dcmitype/StillImage" />
      </cc:Work>
    </rdf:RDF>
  </metadata>
  <sodipodi:namedview
     showguides="false"
     pagecolor="#ffffff"
     bordercolor="#666666"
     borderopacity="1"
     objecttolerance="10"
     gridtolerance="10"
     guidetolerance="10"
     inkscape:pageopacity="0"
     inkscape:pageshadow="2"
     inkscape:window-width="1920"
     inkscape:window-height="1022"
     id="namedview58"
     showgrid="false"
     inkscape:zoom="9.2338926"
     inkscape:cx="46.806216"
     inkscape:cy="19.077315"
     inkscape:window-x="0"
     inkscape:window-y="0"
     inkscape:window-maximized="1"
     inkscape:current-layer="svg"
     inkscape:lockguides="true"
     inkscape:document-rotation="0">
    <inkscape:grid
       id="grid864"
       type="xygrid"
       originx="0"
       originy="0" />
  </sodipodi:namedview>
  <defs
     id="defs4">
    <linearGradient
       inkscape:collect="always"
       id="linearGradient868">
      <stop
         style="stop-color:#005ff0;stop-opacity:1"
         offset="0"
         id="stop864" />
      <stop
         style="stop-color:#afcdff;stop-opacity:0.012"
         offset="1"
         id="stop866" />
    </linearGradient>
    <linearGradient
       id="linearGradient5606"
       osb:paint="solid">
      <stop
         id="stop5608"
         offset="0"
         style="stop-color:#000000" />
    </linearGradient>
    <radialGradient
       inkscape:collect="always"
       xlink:href="#linearGradient868"
       id="radialGradient846"
       cx="-25.832314"
       cy="40.833927"
       fx="-25.832314"
       fy="40.833927"
       r="5.0796752"
       gradientUnits="userSpaceOnUse"
       gradientTransform="matrix(0.66949339,0,0,0.66949339,-8.352062,14.220272)" />
    <radialGradient
       inkscape:collect="always"
       xlink:href="#linearGradient868"
       id="radialGradient838"
       cx="-25.832743"
       cy="40.832741"
       fx="-25.832743"
       fy="40.832741"
       r="5.5331168"
       gradientUnits="userSpaceOnUse"
       gradientTransform="matrix(0.61462803,0,0,0.61462803,-9.890873,16.085047)" />
  </defs>
  <rect
     style="fill:#cfd8dc;fill-opacity:0"
     width="22"
     height="22"
     x="-38.330002"
     y="13.77"
     id="rect16" />
  <g
     id="22-22-window-close"
     transform="translate(32,10)">
    <rect
       style="opacity:0.00100002"
       width="22"
       height="22"
       x="0"
       y="0"
       id="rect18" />
    <g
       style="fill:#ffffff"
       transform="matrix(1.7493122,0,0,1.7499488,-107.95048,-909.47286)"
       id="g24">
      <g
         style="fill:#ffffff"
         transform="translate(19,-242)"
         id="g22">
        <path
           style="fill:#a1b4ba;fill-opacity:1;stroke-width:0.91667"
           d="m 45.856782,764.85707 h 0.785716 c 0.0079,-9e-5 0.01632,-2.6e-4 0.02459,0 0.200325,0.0115 0.400618,0.10106 0.540186,0.24554 l 1.792415,1.79252 1.816972,-1.79252 c 0.208712,-0.18101 0.350966,-0.24004 0.540186,-0.24554 h 0.785723 v 0.78573 c 0,0.22507 -0.02694,0.43276 -0.196436,0.58927 l -1.792416,1.79253 1.767867,1.76788 c 0.147857,0.14771 0.220976,0.35631 0.220985,0.5646 v 0.78575 h -0.785724 c -0.208451,-10e-6 -0.416896,-0.0728 -0.564741,-0.2209 l -1.79242,-1.79253 -1.792414,1.79253 c -0.147845,0.14778 -0.356295,0.2209 -0.564738,0.2209 h -0.785725 v -0.78575 c -3e-6,-0.20829 0.07312,-0.41689 0.22098,-0.5646 l 1.792416,-1.76788 -1.792416,-1.79253 c -0.165585,-0.15293 -0.2382,-0.36868 -0.22098,-0.58927 z"
           id="path20"
           inkscape:connector-curvature="0" />
      </g>
    </g>
  </g>
  <g
     id="16-16-window-close"
     transform="translate(54,32)">
    <rect
       style="opacity:0.00100002"
       width="16"
       height="16"
       x="0"
       y="-16"
       id="rect27" />
    <g
       style="fill:#ffffff"
       transform="matrix(1.2495087,0,0,1.2499635,-76.964626,-665.48065)"
       id="g33">
      <g
         style="fill:#ffffff"
         transform="translate(19,-242)"
         id="g31">
        <path
           style="fill:#a1b4ba;fill-opacity:1;stroke-width:1"
           d="m 45.879669,764.72001 h 0.799999 c 0.0083,-1.5e-4 0.01661,-3.8e-4 0.02505,0 0.203966,0.009 0.407893,0.10285 0.550002,0.25002 l 1.825007,1.82495 1.850005,-1.82495 c 0.212492,-0.18442 0.357334,-0.24442 0.549998,-0.25002 h 0.799999 v 0.80001 c 0,0.22922 -0.02753,0.44049 -0.199999,0.59994 l -1.825009,1.82513 1.800002,1.80001 c 0.15055,0.15057 0.224999,0.36265 0.225006,0.57488 v 0.80001 h -0.800006 c -0.212241,-10e-6 -0.424471,-0.075 -0.575006,-0.22501 l -1.824999,-1.82491 -1.825007,1.82491 c -0.150534,0.15056 -0.362768,0.22501 -0.575,0.22501 h -0.8 v -0.80001 c -3e-6,-0.21222 0.07445,-0.42431 0.224998,-0.57488 l 1.825008,-1.80001 -1.825008,-1.82513 c -0.168591,-0.15552 -0.24252,-0.37539 -0.224992,-0.59994 z"
           id="path29"
           inkscape:connector-curvature="0" />
      </g>
    </g>
  </g>
  <g
     id="window-close">
    <rect
       width="32"
       height="32"
       x="0"
       y="0"
       style="opacity:0.00100002"
       id="rect36" />
    <g
       style="opacity:0.2"
       transform="matrix(1.7493122,0,0,1.7499488,-102.95048,-903.47286)"
       id="g46">
      <g
         transform="translate(19,-242)"
         id="g44" />
    </g>
    <g
       transform="matrix(1.7493122,0,0,1.7499488,-102.95048,-904.47286)"
       style="fill:#ffffff"
       id="g52">
      <g
         transform="translate(19,-242)"
         style="fill:#ffffff"
         id="g50">
        <path
           d="m 45.512856,764.63364 h 0.857149 c 0.0086,-1.2e-4 0.01781,-2.6e-4 0.02682,0 0.21853,0.0138 0.437036,0.11016 0.589291,0.26786 l 1.955366,1.9555 1.982152,-1.9555 c 0.227685,-0.19746 0.382859,-0.26186 0.589287,-0.26786 h 0.857149 v 0.85716 c 0,0.24551 -0.02942,0.4721 -0.214286,0.64285 l -1.955368,1.95547 1.928587,1.92862 c 0.161299,0.16111 0.241056,0.38869 0.241067,0.61591 v 0.85719 h -0.857132 c -0.227401,-1e-5 -0.4548,-0.0777 -0.616082,-0.24099 l -1.955368,-1.95548 -1.955365,1.95548 c -0.161282,0.16116 -0.388681,0.24099 -0.616081,0.24099 h -0.857146 v -0.85719 c 0,-0.22721 0.07981,-0.4548 0.241077,-0.61591 l 1.955364,-1.92862 -1.955364,-1.95547 c -0.18064,-0.16683 -0.259855,-0.40226 -0.241077,-0.64285 z"
           style="fill:#a1b4ba;fill-opacity:1;stroke-width:1"
           id="path48"
           inkscape:connector-curvature="0" />
      </g>
    </g>
  </g>
  <g
     id="window-pin"
     transform="matrix(0.61904769,0,0,0.61904769,88.114502,12.847445)">
    <g
       style="fill:none;stroke:none"
       inkscape:label=""
       transform="matrix(1.1111111,0,0,1.1111111,10.755556,-20.722222)"
       id="e">
      <circle
         style="opacity:1;fill:none;fill-opacity:1;fill-rule:evenodd;stroke:none;stroke-width:1;stroke-linecap:round;stroke-linejoin:round;stroke-miterlimit:4;stroke-dasharray:none;stroke-dashoffset:0;stroke-opacity:1"
         id="path4145"
         cx="-27.5"
         cy="42.5"
         r="4.5" />
    </g>
    <g
       inkscape:label=""
       transform="matrix(0.7125,0,0,0.7125,-1.3937488,-2.5937493)"
       id="e-5">
      <circle
         style="opacity:1;fill:#b1c79e;fill-opacity:1;fill-rule:evenodd;stroke:url(#radialGradient838);stroke-width:0.680162;stroke-linecap:round;stroke-linejoin:round;stroke-miterlimit:4;stroke-dasharray:none;stroke-dashoffset:0;stroke-opacity:1"
         id="path4145-9"
         cx="-25.768396"
         cy="41.182011"
         r="3.0607285" />
    </g>
  </g>
  <g
     transform="matrix(0.61904769,0,0,0.61904769,94.729789,12.695475)"
     id="window-unpin">
    <g
       style="fill:none;stroke:none"
       inkscape:label=""
       transform="matrix(1.1111111,0,0,1.1111111,10.755556,-20.722222)"
       id="e-0">
      <circle
         style="opacity:1;fill:none;fill-opacity:1;fill-rule:evenodd;stroke:none;stroke-width:1;stroke-linecap:round;stroke-linejoin:round;stroke-miterlimit:4;stroke-dasharray:none;stroke-dashoffset:0;stroke-opacity:1"
         id="path4145-2"
         cx="-27.5"
         cy="42.5"
         r="4.5" />
    </g>
    <g
       inkscape:label=""
       transform="matrix(0.7125,0,0,0.7125,-1.3937488,-2.5937493)"
       id="e-5-5">
      <circle
         style="opacity:1;fill:#b5c89d;fill-opacity:1;fill-rule:evenodd;stroke:url(#radialGradient846);stroke-width:0.680162;stroke-linecap:round;stroke-linejoin:round;stroke-miterlimit:4;stroke-dasharray:none;stroke-dashoffset:0;stroke-opacity:1"
         id="path4145-9-6"
         cx="-25.646618"
         cy="41.558296"
         r="3.0607283" />
    </g>
  </g>
</svg>
