<?xml version="1.0" encoding="UTF-8" standalone="no"?>
<svg
   xmlns:dc="http://purl.org/dc/elements/1.1/"
   xmlns:cc="http://creativecommons.org/ns#"
   xmlns:rdf="http://www.w3.org/1999/02/22-rdf-syntax-ns#"
   xmlns:svg="http://www.w3.org/2000/svg"
   xmlns="http://www.w3.org/2000/svg"
   xmlns:sodipodi="http://sodipodi.sourceforge.net/DTD/sodipodi-0.dtd"
   xmlns:inkscape="http://www.inkscape.org/namespaces/inkscape"
   width="50"
   height="20"
   version="1.1"
   viewBox="0 0 50 20"
   id="svg9"
   sodipodi:docname="checkmarks.svg"
   inkscape:version="1.0 (4035a4fb49, 2020-05-01)">
  <metadata
     id="metadata13">
    <rdf:RDF>
      <cc:Work
         rdf:about="">
        <dc:format>image/svg+xml</dc:format>
        <dc:type
           rdf:resource="http://purl.org/dc/dcmitype/StillImage" />
        <dc:title />
      </cc:Work>
    </rdf:RDF>
  </metadata>
  <sodipodi:namedview
     pagecolor="#ffffff"
     bordercolor="#000000"
     borderopacity="1"
     objecttolerance="10"
     gridtolerance="10"
     guidetolerance="10"
     inkscape:pageopacity="0"
     inkscape:pageshadow="2"
     inkscape:window-width="1920"
     inkscape:window-height="1022"
     id="namedview11"
     showgrid="false"
     inkscape:zoom="11.64"
     inkscape:cx="28.205826"
     inkscape:cy="5.6342361"
     inkscape:window-x="0"
     inkscape:window-y="0"
     inkscape:window-maximized="1"
     inkscape:current-layer="svg9"
     inkscape:document-rotation="0"
     showguides="false">
    <inkscape:grid
       type="xygrid"
       id="grid822" />
  </sodipodi:namedview>
  <defs
     id="defs3">
    <style
       id="current-color-scheme"
       type="text/css">.ColorScheme-Text {
        color:#31363b;
        stop-color:#31363b;
      }
      .ColorScheme-Background {
        color:#eff0f1;
        stop-color:#eff0f1;
      }
      .ColorScheme-Highlight {
        color:#3daee9;
        stop-color:#3daee9;
      }
      .ColorScheme-ViewText {
        color:#31363b;
        stop-color:#31363b;
      }
      .ColorScheme-ViewBackground {
        color:#fcfcfc;
        stop-color:#fcfcfc;
      }
      .ColorScheme-ViewHover {
        color:#93cee9;
        stop-color:#93cee9;
      }
      .ColorScheme-ViewFocus{
        color:#3daee9;
        stop-color:#3daee9;
      }
      .ColorScheme-ButtonText {
        color:#31363b;
        stop-color:#31363b;
      }
      .ColorScheme-ButtonBackground {
        color:#eff0f1;
        stop-color:#eff0f1;
      }
      .ColorScheme-ButtonHover {
        color:#93cee9;
        stop-color:#93cee9;
      }
      .ColorScheme-ButtonFocus{
        color:#3daee9;
        stop-color:#3daee9;
      }</style>
  </defs>
  <g
     id="checkbox">
    <path
       id="123"
       d="M 41,1 H 27 c -1.11,0 -2,0.9 -2,2 v 14 c 0,1.1 0.89,2 2,2 h 14 c 1.11,0 2,-0.9 2,-2 V 3 C 43,1.9 42.11,1 41,1 Z M 32,15 27,10 28.41,8.59 32,12.17 39.59,4.58 41,6 Z"
       inkscape:connector-curvature="0"
       style="fill:none" />
    <path
       id="path820"
       d="M 29.625,3 C 28.17075,3 27,4.17075 27,5.625 v 8.75 C 27,15.82925 28.17075,17 29.625,17 h 8.75 C 39.82925,17 41,15.82925 41,14.375 V 5.625 C 41,4.17075 39.82925,3 38.375,3 Z"
       style="fill:#ffffff;stroke-width:0.777778"
       inkscape:connector-curvature="0"
       sodipodi:nodetypes="sssssssss" />
    <path
       sodipodi:nodetypes="sssssssssccccccc"
       style="fill:#6a8f4d;fill-opacity:1;stroke-width:0.888889"
       d="m 29,2 c -1.662,0 -3,1.338 -3,3 v 10 c 0,1.662 1.338,3 3,3 h 10 c 1.662,0 3,-1.338 3,-3 V 5 C 42,3.338 40.662,2 39,2 Z m 8.96598,4.2451048 1.257671,1.1395199 -7.000995,7.0606873 -3.552825,-3.587973 1.17325,-1.2366072 2.379575,2.3089562 z"
       id="path824" />
  </g>
  <g
     id="radiobutton">
    <path
       id="222"
       d="m 10,5 c -2.76,0 -5,2.24 -5,5 0,2.76 2.24,5 5,5 2.76,0 5,-2.24 5,-5 C 15,7.24 12.76,5 10,5 Z M 10,0 C 4.48,0 0,4.48 0,10 0,15.52 4.48,20 10,20 15.52,20 20,15.52 20,10 20,4.48 15.52,0 10,0 Z m 0,18 C 5.58,18 2,14.42 2,10 2,5.58 5.58,2 10,2 c 4.42,0 8,3.58 8,8 0,4.42 -3.58,8 -8,8 z"
       inkscape:connector-curvature="0"
       style="fill:none" />
    <path
       id="path822"
       d="m 10,2 c -4.416,0 -8,3.584 -8,8 0,4.416 3.584,8 8,8 4.416,0 8,-3.584 8,-8 0,-4.416 -3.584,-8 -8,-8 z"
       style="fill:#ffffff;stroke-width:0.8"
       inkscape:connector-curvature="0"
       sodipodi:nodetypes="sssss" />
    <path
       style="fill:#00997f;fill-opacity:1;stroke-width:0.9"
       d="m 10,1 c -4.968,0 -9,4.032 -9,9 0,4.968 4.032,9 9,9 4.968,0 9,-4.032 9,-9 0,-4.968 -4.032,-9 -9,-9 z m 0,2 c 3.864,0 7,3.136 7,7 0,3.864 -3.136,7 -7,7 C 6.136,17 3,13.864 3,10 3,6.136 6.136,3 10,3 Z"
       id="path833" />
    <path
       sodipodi:nodetypes="sssss"
       id="path843"
       d="m 10,5.1 c -2.76,0 -5,2.24 -5,5 0,2.76 2.24,5 5,5 2.76,0 5,-2.24 5,-5 0,-2.76 -2.24,-5 -5,-5 z"
       inkscape:connector-curvature="0"
       style="fill:#009980;fill-opacity:1;stroke-width:0.5" />
  </g>
</svg>
